<?xml version="1.0" encoding="UTF-8" standalone="no"?>
<!DOCTYPE svg PUBLIC "-//W3C//DTD SVG 1.1//EN" "http://www.w3.org/Graphics/SVG/1.1/DTD/svg11.dtd">
<svg width="100%" height="100%" viewBox="0 0 638 340" version="1.1" xmlns="http://www.w3.org/2000/svg" xmlns:xlink="http://www.w3.org/1999/xlink" xml:space="preserve" xmlns:serif="http://www.serif.com/" style="fill-rule:evenodd;clip-rule:evenodd;stroke-linejoin:round;stroke-miterlimit:1.41421;">
    <g id="Artboard1" transform="matrix(1,0,0,1,-48.2978,-89.9283)">
        <rect x="48.298" y="89.928" width="637.963" height="339.109" style="fill:none;"/>
        <g transform="matrix(1,0,0,1,0.297833,0.928321)">
            <path d="M391.312,322.077L359.002,322.077L359.002,322.299L303.133,322.299L303.133,371.929L242.225,371.929L242.225,148.777L391.312,148.777L391.312,322.077ZM103.873,148.777L220.575,148.777L220.575,185.669L164.782,185.669L164.782,285.408L220.575,285.408L220.575,322.299L103.873,322.299L103.873,148.777ZM421.417,148.777L627.703,148.777L627.703,322.077L593.838,322.077L593.838,185.669L553.257,185.669L553.257,322.077L519.393,322.077L519.393,185.669L482.325,185.669L482.325,322.077L421.417,322.077L421.417,148.777ZM303.133,185.669L303.133,285.408L357.447,285.408L357.447,185.669L303.133,185.669Z" style="fill:white;"/>
            <path d="M667.703,362.077L399.002,362.077L399.002,362.299L343.133,362.299L343.133,411.929L202.225,411.929L202.225,362.299L63.873,362.299L63.873,108.777L667.703,108.777L667.703,362.077ZM242.225,148.777L242.225,371.929L303.133,371.929L303.133,322.299L359.002,322.299L359.002,322.077L391.312,322.077L391.312,148.777L242.225,148.777ZM103.873,148.777L103.873,322.299L220.575,322.299L220.575,285.408L164.782,285.408L164.782,185.669L220.575,185.669L220.575,148.777L103.873,148.777ZM428.169,148.777L421.417,148.777L421.417,322.077L482.325,322.077L482.325,185.669L519.393,185.669L519.393,322.077L553.257,322.077L553.257,185.669L593.838,185.669L593.838,322.077L627.703,322.077L627.703,148.777L620.503,148.777L428.169,148.777ZM357.447,285.408L303.133,285.408L303.133,185.669L357.447,185.669L357.447,285.408Z" style="fill:rgb(5,34,97);"/>
        </g>
    </g>
</svg>
